<svg width="245" height="170" viewBox="0 0 245 170" fill="none" xmlns="http://www.w3.org/2000/svg">
<mask id="mask0_1_19" style="mask-type:luminance" maskUnits="userSpaceOnUse" x="0" y="3" width="168" height="167">
<path d="M0 3.73959H167.677V169.464H0V3.73959Z" fill="white"/>
</mask>
<g mask="url(#mask0_1_19)">
<path d="M121.453 146.052C120.146 145.875 118.833 145.766 117.516 145.609L115.547 145.396L113.573 145.245L109.609 144.948L105.635 144.802L103.651 144.734L101.667 144.729L97.6823 144.724L93.698 144.849L91.698 144.917L89.6927 145.052C84.3282 145.438 79 146.135 73.7553 147.177C66.3073 148.63 59.0053 150.625 51.8855 153.031C52.3698 148.479 52.5886 143.865 52.5157 139.26C56.2292 137.885 60.1355 136.656 64.0469 135.547C68.8073 134.198 73.6355 132.995 78.4844 131.948C83.3334 130.906 88.2136 130.021 93.1042 129.406C95.5521 129.109 97.9844 128.87 100.438 128.719C102.901 128.536 105.37 128.474 107.844 128.432C127.63 128.245 147.599 132.703 165.865 141.172L166.156 140.609C157.328 135.667 147.938 131.656 138.172 128.703C128.406 125.75 118.266 123.875 107.995 123.182C105.427 123.021 102.854 122.896 100.276 122.891C97.6927 122.859 95.0886 122.974 92.5157 123.115C87.3594 123.432 82.2605 124.036 77.1875 124.797C72.1146 125.557 67.073 126.484 62.0573 127.573C58.698 128.313 55.3698 129.094 52.0105 130.036C51.5573 125.182 50.8178 120.365 49.7657 115.641C48.125 108.125 46.0469 100.719 43.4844 93.5C42.2032 89.8854 40.7865 86.3281 39.198 82.8542C37.6146 79.3802 35.8855 75.9792 33.875 72.7552C35.2448 76.2969 36.3803 79.8854 37.3542 83.5156C38.3178 87.151 39.1355 90.8177 39.8438 94.4948C40.8542 99.776 41.6355 105.078 42.224 110.396C38.0938 107.37 34.2084 104.005 30.6771 100.385C28.0209 97.6458 25.5886 94.7344 23.4688 91.7031C22.4063 90.1875 21.4323 88.6406 20.5834 87.0625C20.375 86.6719 20.1563 86.276 19.9636 85.8802C19.7657 85.4948 19.5678 85.0885 19.3803 84.6562L18.7969 83.3906L18.2605 82.1094C15.4271 75.2604 13.7761 67.9219 13.4636 60.5625C13.2813 56.8906 13.4532 53.1875 13.9063 49.5937C14.3959 46.0104 15.2344 42.5156 16.4584 39.2396C17.6823 35.974 19.25 32.9219 21.224 30.2969C22.2084 28.9792 23.2865 27.7708 24.4584 26.6771C25.0313 26.151 25.6719 25.5885 26.3386 25.0677C27 24.5417 27.6823 24.0365 28.3855 23.5573C31.1823 21.6146 34.2917 20.1771 37.4375 18.9323C40.5886 17.7031 43.8386 16.625 47.2396 16.0573C48.9375 15.7708 50.6459 15.6458 52.3959 15.6615C54.3178 15.724 56.2553 15.849 58.1875 16.0417C62.0521 16.4323 65.9323 17.0417 69.7448 17.9531C73.5782 18.8333 77.3594 20.0104 81 21.5937C84.6615 23.1458 88.1719 25.125 91.4063 27.6562L91.5521 27.5156C90.3698 25.8229 89.0105 24.2344 87.5417 22.7448C86.0677 21.25 84.4948 19.8385 82.8178 18.5521C79.4688 15.9687 75.8282 13.7292 72.0313 11.7865C68.2188 9.88541 64.2553 8.22916 60.1667 6.90625C58.1303 6.23958 56.0521 5.6302 53.9532 5.09375C51.6771 4.53125 49.3125 4.13541 46.948 3.96875C42.2084 3.58854 37.3646 4.04687 32.8282 5.45312C28.2761 6.83854 24.0625 9.1302 20.198 11.8542C19.2292 12.5365 18.2917 13.2604 17.375 14.0208C16.4584 14.7708 15.5782 15.5625 14.6719 16.4271C12.9011 18.151 11.3021 20.026 9.88546 21.9896C7.05734 25.9323 4.93754 30.2292 3.44796 34.625C1.92713 39.0156 1.01046 43.5156 0.536503 48.0104C0.10942 52.5052 0.0312945 56.9635 0.411503 61.4115C0.807336 65.849 1.54692 70.25 2.71359 74.526C3.86984 78.8125 5.36983 83.0052 7.29692 86.9948L8.02088 88.4844L8.79171 89.9583C9.2865 90.9271 9.89067 91.9635 10.4688 92.9271C11.6563 94.875 12.948 96.7135 14.3125 98.4635C17.0417 101.969 20.0678 105.12 23.2605 108.047C26.448 110.969 29.8334 113.615 33.3646 116.042C36.4896 118.188 39.7553 120.12 43.1407 121.859C43.2136 123.792 43.2553 125.719 43.2396 127.656C43.2188 131.307 42.9792 134.953 42.6511 138.578C42.4896 140.396 42.2761 142.208 42.0782 144.021L41.375 149.448L39.7865 160.375V160.38L38.5209 169.411L47.0625 166.359C51.8803 164.646 56.6511 162.948 61.4584 161.37C63.8698 160.599 66.2709 159.839 68.6875 159.13C69.8959 158.766 71.1094 158.427 72.323 158.099C73.5313 157.755 74.7448 157.443 75.9636 157.12C77.1771 156.802 78.3959 156.521 79.6146 156.224L83.2865 155.417C85.7396 154.906 88.198 154.432 90.6667 154.078L92.5209 153.797L94.4011 153.562L98.1667 153.094L101.948 152.745L103.844 152.578L105.74 152.464C110.802 152.115 115.891 152.047 120.995 152.12C126.094 152.234 131.198 152.542 136.297 153.057C146.51 154.083 156.682 155.974 166.745 158.583C157.224 154.417 147.25 151.115 137 148.807C131.87 147.682 126.688 146.708 121.453 146.052Z" fill="#B01F24"/>
</g>
<mask id="mask1_1_19" style="mask-type:luminance" maskUnits="userSpaceOnUse" x="39" y="0" width="206" height="163">
<path d="M39.677 0H244.224V162.406H39.677V0Z" fill="white"/>
</mask>
<g mask="url(#mask1_1_19)">
<path d="M243.453 52.6615C243.031 48.8333 242.323 45.0677 241.391 41.3698C240.453 37.6615 239.255 33.9583 237.672 30.3281C236.078 26.6979 234.135 23.1719 231.719 19.8229C229.286 16.4219 226.312 13.3542 223 10.7344C219.672 8.13541 216 6.01562 212.187 4.41666C204.526 1.23437 196.443 0.052076 188.646 0.109368C184.745 0.119784 180.849 0.51041 177.12 1.05208C173.375 1.60937 169.667 2.39062 166.036 3.36458C158.76 5.29687 151.771 7.96874 145.114 11.1979C141.781 12.8021 138.526 14.5312 135.364 16.3906C132.198 18.2552 129.114 20.224 126.151 22.224C123.182 24.2083 120.302 26.25 117.484 28.2552C114.661 30.2552 111.875 32.2135 109.088 34.0729C107.703 35.0104 106.318 35.9219 104.927 36.8125L100.562 39.5521C97.6874 41.3437 94.8228 43.0312 91.9738 44.5677C86.2863 47.651 80.4686 50.0365 74.9895 50.4896C69.4165 51.0052 63.552 49.8073 57.7551 47.1875C54.8488 45.901 51.979 44.2865 49.1353 42.4531C46.2863 40.625 43.4947 38.5625 40.5988 36.4115L40.0936 36.7969C41.4061 40.1875 43.2082 43.375 45.3749 46.3646C47.5572 49.349 50.1197 52.125 53.104 54.5573C56.0936 56.9635 59.4947 59.0573 63.2759 60.4948C64.2238 60.8542 65.1822 61.1927 66.1665 61.4792C67.1509 61.7552 68.1457 61.9948 69.1613 62.1927C71.1822 62.6042 73.2603 62.7969 75.3384 62.8229C77.4113 62.8542 79.5311 62.6927 81.5311 62.3594C83.5468 62.0365 85.4999 61.5937 87.3853 61.0521C91.1613 59.9844 94.7082 58.5885 98.104 57.0677C101.5 55.5417 104.719 53.8333 107.859 52.1354L112.489 49.5781C114.083 48.6823 115.667 47.7812 117.208 46.8437C120.292 44.9635 123.276 43.0365 126.208 41.1302L134.859 35.5104C137.703 33.6771 140.526 31.9687 143.396 30.3594C146.26 28.7344 149.151 27.2083 152.109 25.8177C158.005 23.0469 164.047 20.6875 170.229 19.0365C176.38 17.3802 182.755 16.2812 188.812 16.1927C194.906 16.0885 200.87 17.0104 206.099 19.1302C208.713 20.1875 211.13 21.5625 213.312 23.2083C215.474 24.8906 217.422 26.8177 219.068 29.0677C220.755 31.3385 222.229 33.9167 223.463 36.6406C224.719 39.3698 225.755 42.2812 226.588 45.2969C227.422 48.3229 228.073 51.401 228.495 54.4844C228.906 57.5625 229.073 60.651 229.026 63.6979C228.953 66.7448 228.625 69.75 228.01 72.6719C227.375 75.5833 226.479 78.401 225.234 81.1354C222.792 86.6146 219.193 91.7292 214.797 96.1302C212.578 98.3385 210.172 100.443 207.635 102.344C205.094 104.25 202.391 105.958 199.583 107.521C196.776 109.078 193.849 110.458 190.828 111.667C189.411 112.24 187.979 112.776 186.521 113.276C186.516 112.776 186.526 112.286 186.521 111.786C186.521 110.708 186.484 109.635 186.448 108.557C186.417 107.479 186.38 106.401 186.297 105.323L186.193 103.703L186.141 102.896L186.005 101.849C185.781 100.495 185.443 99.2396 185.026 98.0312C184.193 95.6146 183.088 93.3906 181.578 91.25C180.823 90.1771 179.963 89.1302 178.891 88.1146C178.604 87.8594 178.344 87.6042 178.036 87.3542C177.713 87.1042 177.385 86.849 177.052 86.6094C176.708 86.3854 176.364 86.1667 176.016 85.9583C175.667 85.7552 175.312 85.5833 174.953 85.3958C172.062 84.0104 169.187 83.6042 166.62 83.5052C164.047 83.4427 161.656 83.6979 159.516 83.9844C155.167 84.5573 150.906 85.3802 146.734 86.3802C138.385 88.3646 130.401 90.9479 122.458 93.1719C120.474 93.724 118.489 94.2656 116.505 94.7604C114.51 95.276 112.573 95.6771 110.588 96.125C106.641 96.9062 102.646 97.4479 98.6197 97.7917C94.5988 98.0781 90.5572 98.1094 86.5103 97.8698C82.4686 97.6042 78.4426 97.0104 74.4478 96.1667C70.453 95.2865 66.5311 94.0417 62.6509 92.5833C58.802 91.0729 55.052 89.2552 51.3645 87.2396C54.6301 89.8646 58.0832 92.3229 61.7707 94.4271C65.4738 96.5156 69.3488 98.3333 73.3853 99.8073C77.427 101.245 81.604 102.354 85.854 103.167C90.1197 103.901 94.4374 104.323 98.7759 104.484C103.114 104.568 107.453 104.359 111.776 103.922L115.005 103.521C116.088 103.391 117.151 103.229 118.203 103.052C120.312 102.719 122.411 102.344 124.5 101.953C132.849 100.396 140.995 98.526 149.005 97.0417C153.01 96.3021 156.979 95.6302 160.927 95.1562C161.932 95.026 162.875 94.9167 163.771 94.8437C164.667 94.776 165.526 94.7448 166.323 94.7708C167.922 94.7917 169.271 95.0365 170.172 95.4479L170.5 95.6042C170.599 95.6667 170.698 95.724 170.797 95.7812C170.885 95.8542 170.969 95.9115 171.062 95.974L171.396 96.2396C171.864 96.6406 172.37 97.1875 172.875 97.7865C173.87 98.9896 174.823 100.437 175.573 101.896C175.948 102.62 176.286 103.354 176.536 104.031C176.588 104.198 176.646 104.359 176.708 104.526L176.906 105.266L177.302 106.74C177.568 107.729 177.823 108.719 178.068 109.708C178.318 110.698 178.573 111.693 178.792 112.703C179.745 116.703 180.458 120.771 180.979 124.875C181.479 128.979 181.849 133.12 182.135 137.271C182.698 145.578 182.823 153.953 182.807 162.323L183.443 162.359C184.37 154.036 185.271 145.698 185.849 137.281C186.141 133.115 186.333 128.922 186.417 124.714C189.208 124.068 191.984 123.312 194.734 122.422C198.255 121.26 201.729 119.875 205.109 118.26C211.88 115.021 218.234 110.781 223.88 105.651C229.552 100.458 234.448 94.2604 237.969 87.1562C239.734 83.6198 241.099 79.8125 242.078 75.9583C243.031 72.1042 243.594 68.1771 243.818 64.276C244.026 60.3698 243.864 56.4844 243.453 52.6615Z" fill="#B01F24"/>
</g>
</svg>
