<svg width="315" height="315" viewBox="0 0 315 315" fill="none" xmlns="http://www.w3.org/2000/svg">
<mask id="mask0_1_2" style="mask-type:luminance" maskUnits="userSpaceOnUse" x="35" y="76" width="168" height="167">
<path d="M35 76.7396H202.677V242.464H35V76.7396Z" fill="white"/>
</mask>
<g mask="url(#mask0_1_2)">
<path d="M156.453 219.052C155.146 218.875 153.833 218.766 152.516 218.609L150.547 218.396L148.573 218.245L144.609 217.948L140.635 217.802L138.651 217.734L136.667 217.729L132.682 217.724L128.698 217.849L126.698 217.917L124.693 218.052C119.328 218.438 114 219.135 108.755 220.177C101.307 221.63 94.0053 223.625 86.8855 226.031C87.3698 221.479 87.5886 216.865 87.5157 212.26C91.2292 210.885 95.1355 209.656 99.0469 208.547C103.807 207.198 108.635 205.995 113.484 204.948C118.333 203.906 123.214 203.021 128.104 202.406C130.552 202.109 132.984 201.87 135.438 201.719C137.901 201.536 140.37 201.474 142.844 201.432C162.63 201.245 182.599 205.703 200.865 214.172L201.156 213.609C192.328 208.667 182.938 204.656 173.172 201.703C163.406 198.75 153.266 196.875 142.995 196.182C140.427 196.021 137.854 195.896 135.276 195.891C132.693 195.859 130.089 195.974 127.516 196.115C122.359 196.432 117.26 197.036 112.188 197.797C107.115 198.557 102.073 199.484 97.0573 200.573C93.698 201.313 90.3698 202.094 87.0105 203.036C86.5573 198.182 85.8178 193.365 84.7657 188.641C83.125 181.125 81.0469 173.719 78.4844 166.5C77.2032 162.885 75.7865 159.328 74.198 155.854C72.6146 152.38 70.8855 148.979 68.875 145.755C70.2448 149.297 71.3803 152.885 72.3542 156.516C73.3178 160.151 74.1355 163.818 74.8438 167.495C75.8542 172.776 76.6355 178.078 77.224 183.396C73.0938 180.37 69.2084 177.005 65.6771 173.385C63.0209 170.646 60.5886 167.734 58.4688 164.703C57.4063 163.188 56.4323 161.641 55.5834 160.062C55.375 159.672 55.1563 159.276 54.9636 158.88C54.7657 158.495 54.5678 158.089 54.3803 157.656L53.7969 156.391L53.2605 155.109C50.4271 148.26 48.7761 140.922 48.4636 133.562C48.2813 129.891 48.4532 126.187 48.9063 122.594C49.3959 119.01 50.2344 115.516 51.4584 112.24C52.6823 108.974 54.25 105.922 56.224 103.297C57.2084 101.979 58.2865 100.771 59.4584 99.6771C60.0313 99.151 60.6719 98.5885 61.3386 98.0677C62 97.5417 62.6823 97.0365 63.3855 96.5573C66.1823 94.6146 69.2917 93.1771 72.4375 91.9323C75.5886 90.7031 78.8386 89.625 82.2396 89.0573C83.9375 88.7708 85.6459 88.6458 87.3959 88.6615C89.3178 88.724 91.2553 88.849 93.1875 89.0417C97.0521 89.4323 100.932 90.0417 104.745 90.9531C108.578 91.8333 112.359 93.0104 116 94.5937C119.662 96.1458 123.172 98.125 126.406 100.656L126.552 100.516C125.37 98.8229 124.01 97.2344 122.542 95.7448C121.068 94.25 119.495 92.8385 117.818 91.5521C114.469 88.9687 110.828 86.7292 107.031 84.7865C103.219 82.8854 99.2553 81.2292 95.1667 79.9062C93.1303 79.2396 91.0521 78.6302 88.9532 78.0937C86.6771 77.5312 84.3125 77.1354 81.948 76.9687C77.2084 76.5885 72.3646 77.0469 67.8282 78.4531C63.2761 79.8385 59.0625 82.1302 55.198 84.8542C54.2292 85.5365 53.2917 86.2604 52.375 87.0208C51.4584 87.7708 50.5782 88.5625 49.6719 89.4271C47.9011 91.151 46.3021 93.026 44.8855 94.9896C42.0573 98.9323 39.9375 103.229 38.448 107.625C36.9271 112.016 36.0105 116.516 35.5365 121.01C35.1094 125.505 35.0313 129.964 35.4115 134.411C35.8073 138.849 36.5469 143.25 37.7136 147.526C38.8698 151.812 40.3698 156.005 42.2969 159.995L43.0209 161.484L43.7917 162.958C44.2865 163.927 44.8907 164.964 45.4688 165.927C46.6563 167.875 47.948 169.714 49.3125 171.464C52.0417 174.969 55.0678 178.12 58.2605 181.047C61.448 183.969 64.8334 186.615 68.3646 189.042C71.4896 191.188 74.7553 193.12 78.1407 194.859C78.2136 196.792 78.2553 198.719 78.2396 200.656C78.2188 204.307 77.9792 207.953 77.6511 211.578C77.4896 213.396 77.2761 215.208 77.0782 217.021L76.375 222.448L74.7865 233.375V233.38L73.5209 242.411L82.0625 239.359C86.8803 237.646 91.6511 235.948 96.4584 234.37C98.8698 233.599 101.271 232.839 103.688 232.13C104.896 231.766 106.109 231.427 107.323 231.099C108.531 230.755 109.745 230.443 110.964 230.12C112.177 229.802 113.396 229.521 114.615 229.224L118.287 228.417C120.74 227.906 123.198 227.432 125.667 227.078L127.521 226.797L129.401 226.563L133.167 226.094L136.948 225.745L138.844 225.578L140.74 225.464C145.802 225.115 150.891 225.047 155.995 225.12C161.094 225.234 166.198 225.542 171.297 226.057C181.51 227.083 191.682 228.974 201.745 231.583C192.224 227.417 182.25 224.115 172 221.807C166.87 220.682 161.688 219.708 156.453 219.052Z" fill="white"/>
</g>
<mask id="mask1_1_2" style="mask-type:luminance" maskUnits="userSpaceOnUse" x="74" y="73" width="206" height="163">
<path d="M74.677 73H279.224V235.406H74.677V73Z" fill="white"/>
</mask>
<g mask="url(#mask1_1_2)">
<path d="M278.453 125.661C278.031 121.833 277.323 118.068 276.391 114.37C275.453 110.661 274.255 106.958 272.672 103.328C271.078 99.6979 269.135 96.1719 266.719 92.8229C264.286 89.4219 261.312 86.3542 258 83.7344C254.672 81.1354 251 79.0156 247.187 77.4167C239.526 74.2344 231.443 73.0521 223.646 73.1094C219.745 73.1198 215.849 73.5104 212.12 74.0521C208.375 74.6094 204.667 75.3906 201.036 76.3646C193.76 78.2969 186.771 80.9687 180.114 84.1979C176.781 85.8021 173.526 87.5312 170.364 89.3906C167.198 91.2552 164.114 93.224 161.151 95.224C158.182 97.2083 155.302 99.25 152.484 101.255C149.661 103.255 146.875 105.214 144.088 107.073C142.703 108.01 141.318 108.922 139.927 109.812L135.562 112.552C132.687 114.344 129.823 116.031 126.974 117.568C121.286 120.651 115.469 123.036 109.989 123.49C104.417 124.005 98.552 122.807 92.7551 120.187C89.8488 118.901 86.979 117.286 84.1353 115.453C81.2863 113.625 78.4947 111.562 75.5988 109.411L75.0936 109.797C76.4061 113.187 78.2082 116.375 80.3749 119.365C82.5572 122.349 85.1197 125.125 88.104 127.557C91.0936 129.964 94.4947 132.057 98.2759 133.495C99.2238 133.854 100.182 134.193 101.167 134.479C102.151 134.755 103.146 134.995 104.161 135.193C106.182 135.604 108.26 135.797 110.338 135.823C112.411 135.854 114.531 135.693 116.531 135.359C118.547 135.036 120.5 134.594 122.385 134.052C126.161 132.984 129.708 131.589 133.104 130.068C136.5 128.542 139.719 126.833 142.859 125.135L147.489 122.578C149.083 121.682 150.667 120.781 152.208 119.844C155.292 117.964 158.276 116.036 161.208 114.13L169.859 108.51C172.703 106.677 175.526 104.969 178.396 103.359C181.26 101.734 184.151 100.208 187.109 98.8177C193.005 96.0469 199.047 93.6875 205.229 92.0365C211.38 90.3802 217.755 89.2812 223.812 89.1927C229.906 89.0885 235.87 90.0104 241.099 92.1302C243.713 93.1875 246.13 94.5625 248.312 96.2083C250.474 97.8906 252.422 99.8177 254.068 102.068C255.755 104.339 257.229 106.917 258.463 109.641C259.719 112.37 260.755 115.281 261.588 118.297C262.422 121.323 263.073 124.401 263.495 127.484C263.906 130.562 264.073 133.651 264.026 136.698C263.953 139.745 263.625 142.75 263.01 145.672C262.375 148.583 261.479 151.401 260.234 154.135C257.792 159.615 254.193 164.729 249.797 169.13C247.578 171.339 245.172 173.443 242.635 175.344C240.094 177.25 237.391 178.958 234.583 180.521C231.776 182.078 228.849 183.458 225.828 184.667C224.411 185.24 222.979 185.776 221.521 186.276C221.516 185.776 221.526 185.286 221.521 184.786C221.521 183.708 221.484 182.635 221.448 181.557C221.417 180.479 221.38 179.401 221.297 178.323L221.193 176.703L221.141 175.896L221.005 174.849C220.781 173.495 220.443 172.24 220.026 171.031C219.193 168.615 218.088 166.391 216.578 164.25C215.823 163.177 214.963 162.13 213.891 161.115C213.604 160.859 213.344 160.604 213.036 160.354C212.713 160.104 212.385 159.849 212.052 159.609C211.708 159.385 211.364 159.167 211.016 158.958C210.667 158.755 210.312 158.583 209.953 158.396C207.062 157.01 204.187 156.604 201.62 156.505C199.047 156.443 196.656 156.698 194.516 156.984C190.167 157.557 185.906 158.38 181.734 159.38C173.385 161.365 165.401 163.948 157.458 166.172C155.474 166.724 153.489 167.266 151.505 167.76C149.51 168.276 147.573 168.677 145.588 169.125C141.641 169.906 137.646 170.448 133.62 170.792C129.599 171.078 125.557 171.109 121.51 170.87C117.469 170.604 113.443 170.01 109.448 169.167C105.453 168.286 101.531 167.042 97.6509 165.583C93.802 164.073 90.052 162.255 86.3645 160.24C89.6301 162.865 93.0832 165.323 96.7707 167.427C100.474 169.516 104.349 171.333 108.385 172.807C112.427 174.245 116.604 175.354 120.854 176.167C125.12 176.901 129.437 177.323 133.776 177.484C138.114 177.568 142.453 177.359 146.776 176.922L150.005 176.521C151.088 176.391 152.151 176.229 153.203 176.052C155.312 175.719 157.411 175.344 159.5 174.953C167.849 173.396 175.995 171.526 184.005 170.042C188.01 169.302 191.979 168.63 195.927 168.156C196.932 168.026 197.875 167.917 198.771 167.844C199.667 167.776 200.526 167.745 201.323 167.771C202.922 167.792 204.271 168.036 205.172 168.448L205.5 168.604C205.599 168.667 205.698 168.724 205.797 168.781C205.885 168.854 205.969 168.911 206.062 168.974L206.396 169.24C206.864 169.641 207.37 170.187 207.875 170.786C208.87 171.99 209.823 173.437 210.573 174.896C210.948 175.62 211.286 176.354 211.536 177.031C211.588 177.198 211.646 177.359 211.708 177.526L211.906 178.266L212.302 179.74C212.568 180.729 212.823 181.719 213.068 182.708C213.318 183.698 213.573 184.693 213.792 185.703C214.745 189.703 215.458 193.771 215.979 197.875C216.479 201.979 216.849 206.12 217.135 210.271C217.698 218.578 217.823 226.953 217.807 235.323L218.443 235.359C219.37 227.036 220.271 218.698 220.849 210.281C221.141 206.115 221.333 201.922 221.417 197.714C224.208 197.068 226.984 196.312 229.734 195.422C233.255 194.26 236.729 192.875 240.109 191.26C246.88 188.021 253.234 183.781 258.88 178.651C264.552 173.458 269.448 167.26 272.969 160.156C274.734 156.62 276.099 152.812 277.078 148.958C278.031 145.104 278.594 141.177 278.818 137.276C279.026 133.37 278.864 129.484 278.453 125.661Z" fill="white"/>
</g>
</svg>
